<?xml version="1.0"?>
<svg xmlns="http://www.w3.org/2000/svg" xmlns:xlink="http://www.w3.org/1999/xlink" version="1.1" viewBox="0 0 192 192" width="24px" height="24px"><g fill="none" fill-rule="nonzero" stroke="none" stroke-width="1" stroke-linecap="butt" stroke-linejoin="miter" stroke-miterlimit="10" stroke-dasharray="" stroke-dashoffset="0" font-family="none" font-weight="none" font-size="none" text-anchor="none" style="mix-blend-mode: normal"><path d="M0,192v-192h192v192z" fill="none"/><g fill="#ecf0f1"><g id="surface1"><path d="M114,18c-33.07031,0 -60,26.92969 -60,60c0,14.36719 5.03906,27.53906 13.5,37.875l-47.8125,47.8125l8.625,8.625l47.8125,-47.8125c10.33594,8.46094 23.50781,13.5 37.875,13.5c33.07031,0 60,-26.92969 60,-60c0,-33.07031 -26.92969,-60 -60,-60zM114,30c26.57813,0 48,21.42188 48,48c0,26.57813 -21.42187,48 -48,48c-26.57812,0 -48,-21.42187 -48,-48c0,-26.57812 21.42188,-48 48,-48z"/></g></g></g></svg>
